<svg xmlns="http://www.w3.org/2000/svg" version="1.1" xmlns:xlink="http://www.w3.org/1999/xlink" width="1500" height="1500" viewBox="0 0 1500 1500"><rect width="1500" height="1500" x="0" y="0" id="background" stroke="transparent" fill="#ffffff"></rect><svg xml:space="preserve" width="1000" height="1000" data-version="2" data-id="lg_ARdFVcoCGOnRkTRDbv" viewBox="0 0 287 58" x="250" y="250"><rect width="100%" height="100%" fill="transparent"></rect><path fill="#1b1b1b" d="M95.308 46.449h-27.56v-4.06l20.24-27.83h-19.26v-4.74h26.22v4.3l-20.05 27.59h20.41Z"></path><rect width="27.56" height="36.63" x="-13.78" y="-18.32" fill="none" rx="0" ry="0" transform="translate(82.03 28.63)"></rect><path fill="#1b1b1b" d="M132.008 41.779q-2.54 2.54-6.04 3.97-3.51 1.43-7.63 1.43-4.13 0-7.62-1.42-3.49-1.41-6.07-3.99-2.57-2.58-4-6.05-1.43-3.48-1.43-7.59 0-4.12 1.43-7.6 1.43-3.48 4-6.04 2.58-2.57 6.07-3.98 3.49-1.42 7.62-1.42 4.1 0 7.6 1.43t6.02 3.94l-3.74 3.81q-1.83-2.07-4.38-3.26-2.55-1.18-5.58-1.18-2.93 0-5.39 1.06-2.47 1.06-4.3 3-1.83 1.94-2.84 4.56-1.02 2.61-1.02 5.68 0 3.08 1.02 5.69 1.01 2.62 2.84 4.56 1.83 1.94 4.3 3 2.46 1.06 5.39 1.06 3.03 0 5.58-1.18 2.55-1.19 4.36-3.26Z"></path><rect width="32.79" height="38.09" x="-16.39" y="-19.05" fill="none" rx="0" ry="0" transform="translate(116.11 28.63)"></rect><path fill="#1b1b1b" d="M137.868 46.449V9.819h5v15.6q2.71-3.88 8.23-3.88 4.76 0 7.45 2.88 2.68 2.88 2.68 8.04v13.99h-5v-12.77q0-3.64-1.75-5.64-1.74-2-4.87-2-3.15 0-4.94 2.03-1.8 2.04-1.8 5.61v12.77Z"></path><rect width="23.36" height="36.63" x="-11.68" y="-18.32" fill="none" rx="0" ry="0" transform="translate(150.05 28.63)"></rect><path fill="#1b1b1b" d="M188.158 46.449h-4.32l-.29-3.13q-1.35 1.71-3.4 2.66-2.05.95-4.54.95-2.61 0-4.66-1.02-2.05-1.03-3.22-2.81-1.18-1.78-1.18-4.05 0-2.39 1.27-4.21 1.27-1.82 3.47-2.86 2.2-1.04 5-1.04 1.76 0 3.58.42 1.82.41 3.28 1.17v-.9q0-1.79-.91-3.07-.92-1.28-2.49-1.96-1.58-.69-3.48-.69-1.68 0-3.43.59-1.75.58-3.28 1.81l-1.52-4.08q2.22-1.32 4.63-2 2.4-.69 4.72-.69 3.32 0 5.73 1.32 2.4 1.32 3.72 3.75 1.32 2.43 1.32 5.72Zm-11.57-3.76q1.73 0 3.2-.72 1.46-.72 2.38-2.06.91-1.33.98-3.11v-.34q-1.24-.93-2.79-1.45-1.55-.53-3.16-.53-2.47 0-4.1 1.17-1.64 1.18-1.64 3.01 0 1.14.67 2.06.67.92 1.83 1.44 1.16.53 2.63.53"></path><rect width="21.61" height="25.39" x="-10.8" y="-12.7" fill="none" rx="0" ry="0" transform="translate(177.85 34.73)"></rect><path fill="#1b1b1b" d="M209.108 45.829q-2.57 1.1-4.96 1.1t-4.19-1.02q-1.79-1.03-2.8-2.89-1.02-1.87-1.02-4.31v-12.21h-4.27v-4.47h4.52v-6.1h4.76v6.1h7.13v4.47h-7.13v11.28q0 2.15 1.16 3.4 1.16 1.26 2.99 1.26 1.54 0 3.05-.93Z"></path><rect width="17.24" height="31" x="-8.62" y="-15.5" fill="none" rx="0" ry="0" transform="translate(200.99 31.93)"></rect><path fill="#1b1b1b" d="M233.078 36.119h-19.53v-3.88h19.53Z"></path><rect width="19.53" height="3.88" x="-9.77" y="-1.94" fill="none" rx="0" ry="0" transform="translate(223.81 34.68)"></rect><path fill="#1b1b1b" d="M243.158 46.449h-5.63l14.89-36.63h5.76l14.87 36.63h-5.64l-3.66-9.21h-16.92Zm5.5-13.95h13.25l-6.64-16.72Z"></path><rect width="35.52" height="36.63" x="-17.76" y="-18.32" fill="none" rx="0" ry="0" transform="translate(255.79 28.63)"></rect><path fill="#1b1b1b" d="M277.488 46.449V9.819h5.37v36.63Z"></path><rect width="5.37" height="36.63" x="-2.69" y="-18.32" fill="none" rx="0" ry="0" transform="translate(280.67 28.63)"></rect><path fill="#1b1b1b" fill-rule="evenodd" d="M10.012 36.215c0-5.692 4.61-10.307 10.31-10.307h20.606c5.694 0 10.31 4.614 10.31 10.307 0 5.692-4.61 10.306-10.31 10.306H20.322c-5.694 0-10.31-4.613-10.31-10.306m10.307 4.123a4.123 4.123 0 1 1 0-8.246 4.123 4.123 0 0 1 0 8.246m20.613 0a4.123 4.123 0 1 1 0-8.246 4.123 4.123 0 0 1 0 8.246"></path><path fill="#1b1b1b" fill-rule="evenodd" d="M40.932 37.59a1.374 1.374 0 1 0 0-2.75 1.374 1.374 0 0 0 0 2.75m-20.614 0a1.374 1.374 0 1 0 0-2.75 1.374 1.374 0 0 0 0 2.75"></path><path fill="#1b1b1b" fill-rule="evenodd" d="M30.625 8.731c14.727 0 21.563 5.919 24.736 11.413V1.86h2.748v41.226s0 13.742-27.484 13.742S3.141 43.086 3.141 43.086V1.86h2.748v18.284C9.062 14.65 15.898 8.73 30.625 8.73M5.889 29.344v13.742c0-.02.005.053.027.202.044.31.127.673.262 1.076.405 1.216 1.15 2.458 2.342 3.65 3.722 3.721 10.754 6.066 22.105 6.066 11.35 0 18.383-2.345 22.105-6.066 1.192-1.192 1.937-2.433 2.342-3.65a6.222 6.222 0 0 0 .262-1.076c.022-.15.027-.221.027-.202V29.344c0-.077-.01-.292-.042-.625a16.485 16.485 0 0 0-.323-2 18.18 18.18 0 0 0-2.61-6.157c-3.766-5.652-10.628-9.082-21.76-9.082s-17.995 3.43-21.763 9.082a18.18 18.18 0 0 0-2.61 6.157 16.485 16.485 0 0 0-.322 2c-.03.317-.042.625-.042.625m0-27.484a1.374 1.374 0 1 0-2.748 0zm52.22 0a1.374 1.374 0 1 0-2.748 0z"></path></svg></svg>